<?xml version="1.0" encoding="utf-8"?>
<!-- Generator: Adobe Illustrator 25.3.1, SVG Export Plug-In . SVG Version: 6.00 Build 0)  -->
<svg version="1.1" id="Слой_1" xmlns="http://www.w3.org/2000/svg" xmlns:xlink="http://www.w3.org/1999/xlink" x="0px" y="0px"
	 viewBox="0 0 2500 2500" style="enable-background:new 0 0 2500 2500;" xml:space="preserve">
<style type="text/css">
	.st0{fill:#FFFFFF;}
</style>
<path class="st0" d="M0,1250c0-345.05,122.07-639.65,366.21-883.79C610.35,122.07,904.95,0,1250,0
	c345.05,0,639.65,122.07,883.79,366.21C2377.93,610.35,2500,904.95,2500,1250s-122.07,639.65-366.21,883.79S1595.05,2500,1250,2500
	c-345.05,0-639.65-122.07-883.79-366.21C122.07,1889.65,0,1595.05,0,1250z M136.72,1250c0,305.99,109.05,568.03,327.15,786.13
	c218.1,218.1,480.14,327.15,786.13,327.15c305.99,0,568.03-109.05,786.13-327.15s327.15-480.14,327.15-786.13
	c0-305.99-109.05-568.03-327.15-786.13c-218.1-218.1-480.15-327.15-786.13-327.15c-305.99,0-568.03,109.05-786.13,327.15
	C245.77,681.97,136.72,944.01,136.72,1250z M488.28,1518.55c-6.51-6.51-6.51-13.02,0-19.53c13.02-13.02,29.3-17.9,48.83-14.65
	c19.53,3.26,30.92,6.51,34.18,9.77c22.79,9.77,48.02,31.74,75.68,65.92c27.67,34.18,49.64,57.78,65.92,70.8
	c78.12,65.1,157.87,69.99,239.26,14.65c6.51-22.79,17.09-42.32,31.74-58.6c14.65-16.28,28.48-27.67,41.51-34.18
	c13.02-6.51,35.81-16.28,68.36-29.3c-107.42-9.77-194.5-28.48-261.23-56.15c-66.73-27.67-119.63-62.66-158.69-104.98
	c-52.08-58.59-83.82-135.09-95.22-229.49c-11.4-94.4-4.07-180.66,21.97-258.79c19.53-48.83,47.2-92.77,83.01-131.84
	c-26.04-81.38-21.16-174.15,14.65-278.32c104.17,6.51,198.57,42.32,283.2,107.42c162.76-42.32,332.03-43.95,507.81-4.88
	c22.79-16.28,57.78-36.62,104.98-61.04c47.2-24.41,106.61-38.25,178.22-41.51c13.02,35.81,21.97,78.12,26.86,126.95
	s2.44,94.4-7.32,136.72c74.87,78.12,113.93,182.29,117.18,312.5c0,104.17-17.9,190.43-53.71,258.79
	c-35.81,68.36-99.28,125.33-190.43,170.9c-61.85,29.3-143.23,47.2-244.14,53.71c45.58,22.79,78.94,46.39,100.1,70.8
	c21.16,24.41,34.99,62.66,41.51,114.74v153.81l4.88,148.92c9.77,16.28,21.16,30.11,34.18,41.51c13.02,11.39,24.41,19.53,34.18,24.41
	c9.76,4.88,13.02,12.21,9.76,21.97c-3.26,9.77-16.28,14.65-39.06,14.65c-55.34,0-99.28-19.53-131.84-58.6
	c-9.77-16.28-14.65-35.8-14.65-58.59v-234.37c0-26.04-6.51-44.76-19.53-56.15c-13.02-11.4-26.04-18.72-39.06-21.97v307.62
	c0,55.34,6.51,91.15,19.53,107.42c13.02,16.28,21.16,32.55,24.42,48.83c3.26,3.26,0.81,5.7-7.33,7.32
	c-8.14,1.63-21.97-0.81-41.51-7.32c-42.32-9.77-71.61-31.74-87.89-65.92c-16.28-34.18-24.41-70.8-24.41-109.86v-302.73h-63.48
	v302.73c0,39.06-8.14,76.5-24.42,112.3c-22.78,45.58-65.1,69.99-126.95,73.24c-9.77-3.26-14.65-6.51-14.65-9.76
	c3.26-3.26,13.02-19.53,29.3-48.83c3.26-6.51,7.33-19.53,12.21-39.06c4.89-19.53,7.33-42.32,7.33-68.36v-307.62
	c-13.02,3.26-25.23,10.58-36.62,21.97c-11.39,11.4-17.09,30.11-17.09,56.15v234.37c0,22.78-4.88,42.32-14.65,58.59
	c-29.3,39.06-73.24,58.6-131.83,58.6c-22.79,0-35.81-4.88-39.06-14.65c-3.26-6.51-2.44-12.21,2.44-17.09s12.21-10.58,21.97-17.09
	s16.28-11.4,19.53-14.65c13.02-9.77,22.78-22.79,29.3-39.06c9.77-13.02,12.21-47.2,7.32-102.54c-4.88-55.34-5.7-91.15-2.44-107.42
	c-84.64,29.3-170.9,14.65-258.79-43.95c-26.04-26.04-52.08-63.48-78.12-112.3C585.94,1609.7,546.87,1567.38,488.28,1518.55
	L488.28,1518.55z"/>
</svg>
