<?xml version="1.0" encoding="utf-8"?>
<!-- Generator: Adobe Adobe Illustrator 28.4.0, SVG Export Plug-In . SVG Version: 6.00 Build 0)  -->
<svg version="1.1" id="Слой_1" xmlns="http://www.w3.org/2000/svg" xmlns:xlink="http://www.w3.org/1999/xlink" x="0px" y="0px"
	 width="200px" height="60px" viewBox="0 0 200 60" style="enable-background:new 0 0 200 60;" xml:space="preserve">
<g>
	<path d="M86.1,15.9L68.8,39.7c-1.5,2-3.2,3-5.1,3c-2.8,0-4.2-1.4-4.2-4.3L59.1,23c0-2.8-0.3-4.7-0.9-5.7c-0.6-1-1.7-1.5-3.4-1.5
		c-1.5,0-3.1,0.6-4.6,2s-2.2,2.6-2.2,4c0,1.1,0.4,2,1.3,2.7c0.8,0.7,2,1,3.4,1c0.3,0,0.7,0,1,0c0.4,0,0.6,0,0.7,0
		c2.3,0,3.4,0.8,3.4,2.3c0,1-0.6,1.9-1.9,2.6c-1.3,0.7-2.9,1-4.8,1c-3.1,0-5.6-0.9-7.6-2.5c-2-1.7-3-3.9-3-6.5c0-3.1,1.6-6,4.7-8.5
		s6.7-3.8,10.7-3.8c3.8,0,6.7,1.1,8.5,3.2c0.7,0.8,1.2,1.9,1.4,3.3c0.3,1.4,0.4,3.5,0.4,6.3v9.1l13.6-18.9l0.7-1
		c0.5-0.7,1-1.1,1.5-1.3s1.4-0.3,2.5-0.3l1.1,0h4.9c63.8,0,63.5-0.2,67.9,0c6.6,0.3-2.9,7.9-1.3,4.7c0.5-0.9-66.2,0.8-67.9,0.8
		L86.1,15.9L86.1,15.9z"/>
	<path d="M85.3,37.1h3.1c2.3,0,3.4,0.7,3.4,2c0,0.9-0.4,1.7-1.2,2.2c-0.8,0.5-1.9,0.8-3.4,0.8h-4.3c-1.6,0-2.8-0.3-3.8-0.8
		c-0.9-0.5-1.4-1.3-1.4-2.2c0-0.5,0.2-1.2,0.6-1.9l4.5-9.3l0.3-0.6c0.8-1.7,2.2-2.6,4-2.6c0.8,0,1.4,0.2,2,0.6
		c0.6,0.4,0.8,0.9,0.8,1.5c0,0.5-0.2,1.2-0.7,2.2L85.3,37.1z M88.9,17.2c1.1,0,1.9,0.3,2.7,0.9c0.7,0.6,1.1,1.4,1.1,2.3
		s-0.4,1.6-1.1,2.3c-0.7,0.6-1.6,0.9-2.7,0.9c-1.1,0-1.9-0.3-2.7-0.9s-1.1-1.4-1.1-2.3s0.4-1.6,1.1-2.3S87.9,17.2,88.9,17.2z"/>
	<path d="M112.9,37.1h3.2c2.3,0,3.4,0.7,3.4,2c0,0.9-0.4,1.7-1.2,2.2s-1.9,0.8-3.4,0.8h-5.7c-1.1,0-2-0.3-2.8-0.8s-1.1-1.3-1.1-2.1
		c0-0.5,0.2-1.3,0.8-2.3l2.4-5c0.2-0.5,0.4-0.9,0.4-1.3c0-0.4-0.2-0.7-0.5-0.9c-0.4-0.3-0.8-0.4-1.4-0.4c-1.9,0-3.4,1.2-4.5,3.6
		l-3.2,6.7c-1,2-2.4,3-4.3,3c-0.8,0-1.4-0.2-2-0.6c-0.5-0.4-0.8-0.9-0.8-1.5c0-0.4,0.1-0.9,0.4-1.5l0.3-0.6l5.5-11.4
		c0.7-1.5,1.9-2.2,3.6-2.2c1.4,0,2.4,0.5,3,1.6c1.9-1.2,3.8-1.9,5.5-1.9c1.7,0,3.1,0.4,4.2,1.2s1.7,1.9,1.7,3.1
		c0,0.7-0.2,1.5-0.6,2.3L112.9,37.1z"/>
	<path d="M136.1,43h3.1c2.3,0,3.4,0.7,3.4,2c0,0.9-0.4,1.7-1.2,2.2c-0.8,0.5-1.9,0.8-3.4,0.8h-4.4c-0.5,1.3-1.5,3.1-2.9,5.2
		c-2.4,3.8-5.9,5.7-10.4,5.7c-2.8,0-5.1-0.7-7-2.2c-1.9-1.5-2.8-3.3-2.8-5.5c0-1.5,0.5-2.9,1.5-4.2s2.4-2.3,4-3
		c1.9-0.8,4.8-1.1,8.5-1.1h4.4l0.8-1.7c-1.3,0.5-2.6,0.7-3.7,0.7c-1.9,0-3.5-0.4-4.7-1.2c-1.2-0.8-1.8-1.9-1.8-3.2
		c0-0.8,0.4-2,1.2-3.7l3-6.2l0.3-0.6c0.9-1.7,2.2-2.6,4-2.6c0.8,0,1.5,0.2,2,0.6s0.8,1,0.8,1.6c0,0.4-0.2,1.2-0.7,2.2l-2.7,5.5
		c-0.4,0.9-0.6,1.5-0.7,1.7c-0.1,0.8,0.5,1.1,1.7,1.1c0.8,0,1.7-0.2,2.6-0.6c0.9-0.4,1.4-0.9,1.6-1.4l3.6-7.5l0.3-0.6
		c0.9-1.7,2.2-2.6,4-2.6c0.8,0,1.5,0.2,2,0.6c0.5,0.4,0.8,1,0.8,1.6c0,0.4-0.1,1-0.4,1.5l-0.3,0.6L136.1,43z M127.2,48h-3.8
		c-4.2,0-6.2,1.1-6.2,3.3c0,0.8,0.3,1.4,0.8,1.9s1.3,0.7,2.3,0.7c1.3,0,2.5-0.4,3.5-1.3C124.9,51.7,126,50.2,127.2,48z"/>
	<path d="M150,37h2.9c2.3,0,3.4,0.7,3.4,2.1c0,0.9-0.4,1.7-1.2,2.2c-0.8,0.5-1.9,0.8-3.4,0.8h-4.9c-1.3,0-2.4-0.3-3.2-0.8
		c-0.8-0.5-1.2-1.3-1.2-2.2c0-0.5,0.3-1.3,0.8-2.4l11-23.1l0.3-0.6c0.8-1.7,2.2-2.6,4-2.6c0.8,0,1.4,0.2,1.9,0.6s0.8,1,0.8,1.6
		c0,0.5-0.1,1-0.4,1.6l-0.3,0.6L150,37z"/>
</g>
</svg>
